<?xml version="1.0" encoding="utf-8"?>
<!-- Generator: Adobe Illustrator 16.0.0, SVG Export Plug-In . SVG Version: 6.00 Build 0)  -->
<!DOCTYPE svg PUBLIC "-//W3C//DTD SVG 1.1//EN" "http://www.w3.org/Graphics/SVG/1.1/DTD/svg11.dtd">
<svg version="1.1" id="Calque_1" xmlns="http://www.w3.org/2000/svg" xmlns:xlink="http://www.w3.org/1999/xlink" x="0px" y="0px"
	 width="495.631px" height="362.629px" viewBox="0 0 495.631 362.629" enable-background="new 0 0 495.631 362.629"
	 xml:space="preserve">
<path fill="#E55811" d="M0,362.629V195.523C0,195.523,4.547,0,196.661,0h298.97v162.558c0,0,0,200.071-203.481,200.071
	C105.72,362.629,0,362.629,0,362.629z"/>
<g>
	<g>
		<path fill="#FFFFFF" stroke="#E94E1B" stroke-miterlimit="10" d="M164.738,299.326V50.851h74.738
			c25.942,0,43.312,0.87,52.104,2.605c8.793,1.737,16.445,5.673,22.959,11.805c6.514,6.134,11.749,14.492,15.713,25.076
			c3.961,10.584,5.943,21.793,5.943,33.624c0,24.969-6.35,43.747-19.051,56.338c18.344,30.396,29.253,70.072,32.729,119.027h-77.669
			v-2.279c0-29.2-2.769-51.454-8.305-66.76s-13.352-22.959-23.447-22.959h-0.977v91.998H164.738z M240.779,101.979h-1.302v47.872
			h1.954c7.271,0,12.538-1.954,15.794-5.862s4.885-10.149,4.885-18.725C262.109,109.741,254.999,101.979,240.779,101.979z"/>
	</g>
</g>
</svg>
