<svg xmlns="http://www.w3.org/2000/svg" width="60" height="60" viewBox="0 0 60 60"><defs><style>.cls-1{fill:#bbbbb9;}.cls-2{fill:#bcbcbb;}.cls-3{fill:#c2c2c0;}</style></defs><title>casier</title><g id="Calque_2" data-name="Calque 2"><path class="cls-1" d="M46.65,19.5a5.08,5.08,0,0,0-.08-.95c-.29-1.47-.61-2.94-.79-4.42a3.39,3.39,0,0,0-3.39-3.23q-12.18,0-24.35,0a3.29,3.29,0,0,0-3.29,2.65c-.12.5-.19,1-.27,1.52a31.48,31.48,0,0,0-.68,4.28c0,9.65,0,19.3,0,28.95,0,.67.2.81.84.81,5.2,0,10.41,0,15.62,0s10.36,0,15.54,0c.7,0,.91-.17.91-.89C46.64,38.65,46.65,29.07,46.65,19.5ZM15.39,17.19c.19-1.06.46-2.12.56-3.19a2.13,2.13,0,0,1,2.35-1.93H41.76c1.94,0,2.54.54,2.83,2.44.17,1.11.35,2.23.61,3.33.12.47,0,.61-.42.71-1.32.36-1.41.3-1.41-1.05,0-.72,0-1.43,0-2.15s-.21-.75-.77-.75c-4.12,0-8.24,0-12.36,0s-8.19,0-12.28,0c-.7,0-1,.18-.93.9s0,1.73,0,2.59c0,.45,0,.66-.61.56C15.17,18.42,15.15,18.47,15.39,17.19Zm26.69,1.06c0,.52-.22.72-.66.77-1,.11-2,.24-2.93.3-4.48.24-9,.24-13.46.14-2,0-3.92-.28-5.87-.43-.54,0-.88-.22-.81-.86a8.78,8.78,0,0,0,0-1.7c0-.58.2-.7.73-.7,3.72,0,7.45,0,11.17,0s7.35,0,11,0c.6,0,.85.14.8.78A9.65,9.65,0,0,0,42.08,18.25Zm2.28,29.52c-.1.26-.39.14-.6.14h-27c-.23,0-.55.14-.67-.13s.16-.44.32-.62c.37-.43.76-.84,1.12-1.28a1.34,1.34,0,0,1,1.15-.51q11.53,0,23.09,0a1.28,1.28,0,0,1,1.1.45c.39.48.81.93,1.22,1.39C44.22,47.37,44.44,47.55,44.36,47.77Zm.84-1.29c-.26.12-.45-.2-.55-.38-.93-1.75-2.44-2-4.27-1.93-7.4.09-14.8,0-22.2,0a1.45,1.45,0,0,0-1.35.68,14.63,14.63,0,0,1-1.21,1.4c-.1.12-.21.32-.41.22s-.09-.26-.1-.4a2.81,2.81,0,0,1,0-.29q0-12.66,0-25.32c0-.63.11-.85.79-.72a56.06,56.06,0,0,0,5.63.64c1.42.13,2.85.24,4.27.25,3,0,5.92.08,8.88,0A63.17,63.17,0,0,0,44,19.81c.32,0,.65,0,1-.09s.39.06.39.33v13.1c0,4.22,0,8.44,0,12.66C45.32,46,45.45,46.37,45.2,46.48Z"/><path class="cls-2" d="M39.91,17.11H31.47c-2.81,0-5.62,0-8.44,0-.52,0-.7.15-.67.67s.43.51.8.51H39.89c.43,0,.85,0,.83-.61S40.32,17.11,39.91,17.11Z"/><path class="cls-3" d="M20.37,17.1c-.37,0-.73,0-.65.52s.13.68.62.67.58-.11.57-.54S20.88,17.07,20.37,17.1Z"/><path class="cls-1" d="M30.26,23.31a3,3,0,1,0,3,3A3,3,0,0,0,30.26,23.31Zm0,5a1.95,1.95,0,1,1,1.94-1.95A1.95,1.95,0,0,1,30.26,28.27Z"/><circle class="cls-1" cx="30.26" cy="26.32" r="0.62"/></g></svg>