<svg id="Calque_1" data-name="Calque 1" xmlns="http://www.w3.org/2000/svg" width="60" height="60" viewBox="0 0 60 60"><title>dll</title><g id="surface1"><path d="M41.42,29.08V21.13a.93.93,0,0,0-.26-.6l-8.91-9.36a.89.89,0,0,0-.64-.27H17.49a4.72,4.72,0,0,0-4.7,4.74V42.35a4.68,4.68,0,0,0,4.7,4.7H28.64a12,12,0,1,0,12.78-18ZM32.49,14l6,6.29H34.59a2.11,2.11,0,0,1-2.1-2.11Zm-15,31.32a2.94,2.94,0,0,1-2.95-2.95V15.64a3,3,0,0,1,2.95-3H30.74v5.51A3.85,3.85,0,0,0,34.59,22h5.07v6.83c-.26,0-.47,0-.7,0a12.21,12.21,0,0,0-8,3H19.87a.88.88,0,1,0,0,1.75h9.48a14.62,14.62,0,0,0-1.54,2.71H19.87a.88.88,0,0,0,0,1.76h7.37a12.15,12.15,0,0,0-.33,2.81,11.68,11.68,0,0,0,.86,4.45H17.49ZM39,51.16A10.29,10.29,0,1,1,49.24,40.87,10.3,10.3,0,0,1,39,51.16Z"/><path d="M19.87,29.2h8.86a.88.88,0,1,0,0-1.75H19.87a.88.88,0,1,0,0,1.75Z"/><path d="M43.44,40.69l-3.6,3.88V35a.88.88,0,1,0-1.75,0v9.56l-3.62-3.88a.89.89,0,0,0-1.25,0,.88.88,0,0,0,0,1.24l5.12,5.5a.86.86,0,0,0,.64.28.88.88,0,0,0,.64-.28l5.13-5.5a.88.88,0,0,0,0-1.24A.87.87,0,0,0,43.44,40.69Z"/></g></svg>