<svg xmlns="http://www.w3.org/2000/svg" width="60" height="60" viewBox="0 0 60 60"><defs><style>.cls-1{fill:#bbbbb9;}</style></defs><title>guy</title><g id="Calque_2" data-name="Calque 2"><path class="cls-1" d="M40,41.2c-.47-.46-.48-.72,0-1.19a12.82,12.82,0,0,0,3.55-6.29,19.29,19.29,0,0,0,.25-4.55c.06-4.8.4-9.62-.13-14.41a8.86,8.86,0,0,0-1.5-4.27c-.33-.46-.6-.5-1,0s-.89,1.13-1.34,1.7c-.1.12-.15.35-.36.24s-.13-.23-.17-.36a8.77,8.77,0,0,1-.17-2.23c0-.55-.26-.64-.68-.34s-.84.64-1.25,1-.61.3-.57-.27-.24-.6-.67-.45a3.31,3.31,0,0,1-2.13,0A13.74,13.74,0,0,0,24.7,10a13.43,13.43,0,0,0-9,13.06c0,3,.29,5.95.18,8.92a8.56,8.56,0,0,0,.67,3.32,11.7,11.7,0,0,0,3.21,4.8c.39.35.4.58,0,.92a7.35,7.35,0,0,0-1,1,13.86,13.86,0,0,0-3.06,7.6c-.09.94.25,1.34,1.21,1.34H42.53c1.19,0,1.44-.23,1.36-1.43A12.41,12.41,0,0,0,40,41.2ZM28.35,49.64c-1.75,0-3.5,0-5.26,0s-3.44,0-5.17,0c-.67,0-.84-.27-.74-.84A12,12,0,0,1,21,41.7c.25-.24.43-.09.67,0,1.15.42,1.49,1.5,2,2.44.58,1.1,1.13,2.22,1.71,3.32s1,1.06,1.79.27l1.53-1.53c.1-.1.2-.21.35-.15s.14.23.14.36c0,.8,0,1.61,0,2.42C29.22,49.46,29,49.65,28.35,49.64Zm.74-6.86A12.36,12.36,0,0,1,17.23,32.55a22.36,22.36,0,0,1,0-3.84h0c0-1.17,0-2.33,0-3.5a.73.73,0,0,1,.46-.79,8.92,8.92,0,0,0,4.77-4.55c.17-.41.4-.23.66-.06a29,29,0,0,0,3.39,1.93,5,5,0,0,0,.69.28.73.73,0,0,0,.92-.37c.24-.42-.11-.64-.37-.8-.5-.29-1-.52-1.57-.77a17,17,0,0,1-3.42-2.34c-.7-.58-1.2-.42-1.33.47-.32,2.22-1.76,3.57-3.56,4.64-.55.32-.64.09-.64-.44a11.41,11.41,0,0,1,5.46-9.89,12.68,12.68,0,0,1,8.16-2.12A12.82,12.82,0,0,1,37.69,13a11.44,11.44,0,0,1,4.61,7.28,23.47,23.47,0,0,1,.22,2.65c0,.39-.15.53-.61.54a43.7,43.7,0,0,1-9.4-1.07,10,10,0,0,0-2.1-.49c-.33,0-.68,0-.77.43a.67.67,0,0,0,.54.81c1,.28,2,.57,3.06.76a42.41,42.41,0,0,0,8.25.87c.72,0,1.09.29,1.06,1.12-.07,2.14.06,4.28-.16,6.42a10.59,10.59,0,0,1-2.58,5.94A12.75,12.75,0,0,1,29.09,42.78Zm12.43,6.87c-1.69-.06-3.39,0-5.09,0s-3.39,0-5.08,0c-.61,0-.87-.19-.84-.82s0-1.55,0-2.33c0-.16-.06-.36.14-.44s.3.1.41.21l1.47,1.48c.79.79,1.17.72,1.68-.25.78-1.5,1.6-3,2.36-4.49a3.56,3.56,0,0,1,1.51-1.37c.34-.2.54,0,.72.2a11.87,11.87,0,0,1,3.59,6.85C42.5,49.39,42.3,49.68,41.52,49.65Z"/><path class="cls-1" d="M24.21,25.57a2,2,0,0,1,2.15,2.11,2.1,2.1,0,0,1-2.16,2.06,2.35,2.35,0,0,1-2.33-2.17A2.19,2.19,0,0,1,24.21,25.57Z"/><path class="cls-1" d="M30.08,38.3a6.78,6.78,0,0,1-4.33-1.57c-.32-.26-.58-.58-.25-1a.76.76,0,0,1,1.16-.09c2.45,1.73,3.91,1.72,6.42,0,.4-.28.73-.33,1.06.12s.1.71-.21,1A6.81,6.81,0,0,1,30.08,38.3Z"/><path class="cls-1" d="M37.87,26.75h0a2.5,2.5,0,0,0-2.64-1.16,2.2,2.2,0,0,0-1.67,1.65,2,2,0,0,0,1.12,2.2c1.32.58,2.18.31,3.2-1A1.23,1.23,0,0,0,37.87,26.75Z"/></g></svg>