<svg id="Calque_1" data-name="Calque 1" xmlns="http://www.w3.org/2000/svg" width="60" height="60" viewBox="0 0 60 60"><title>lock</title><path d="M32.92,35.36a4.35,4.35,0,0,1-1.51,3.49C31,39.17,31,42,30,42c-1.27,0-.94-2.81-1.34-3.1a4.33,4.33,0,0,1-1.58-3.54c0-2.2,1.31-4,2.92-4S32.92,33.16,32.92,35.36Z"/><path d="M41.86,24.49h-1.5c-.09-6.41-3.92-13-10.27-13s-10.18,6.56-10.26,13H18.14A3.12,3.12,0,0,0,15,27.61V45.35a3.13,3.13,0,0,0,3.12,3.13H41.86A3.13,3.13,0,0,0,45,45.35V27.61A3.12,3.12,0,0,0,41.86,24.49ZM30.09,13.61c5.56,0,8.1,6.28,8.18,10.88H21.91C22,19.89,24.54,13.61,30.09,13.61ZM42.9,45.35a1,1,0,0,1-1,1H18.14a1,1,0,0,1-1-1V27.61a1,1,0,0,1,1-1H41.86a1,1,0,0,1,1,1Z"/></svg>