<svg xmlns="http://www.w3.org/2000/svg" width="60" height="60" viewBox="0 0 60 60"><title>newspapper</title><g id="Calque_2" data-name="Calque 2"><path d="M38,19.9A.93.93,0,0,0,38,18H17.72a.93.93,0,0,0,0,1.86Z"/><path d="M18.24,32.48h8a.93.93,0,0,0,.93-.93v-8.4a.93.93,0,0,0-.93-.93h-8a.93.93,0,0,0-.93.93v8.4A.93.93,0,0,0,18.24,32.48Zm.93-8.4h6.17v6.54H19.17Z"/><path d="M38.07,22.32H30.56a.93.93,0,0,0,0,1.86h7.51a.93.93,0,0,0,0-1.86Z"/><path d="M47.52,19.39A1.52,1.52,0,0,0,46.11,18H43.4V16.68c0-2.28-.32-3.58-4.08-3.58H15.86c-3.38,0-3.38,1.39-3.38,3.63V40.32a6.59,6.59,0,0,0,6.58,6.58h22.7c3.63,0,5.76-2.95,5.76-6.58ZM45.67,40.33c0,2.61-1.3,4.72-3.9,4.72H19.06a4.72,4.72,0,0,1-4.72-4.72s0-22.52,0-23.65-.13-1.75,1.57-1.72c1.14,0,17.54,0,23.5,0,1.6,0,2.16.3,2.13,1.72,0,1,0,23.1,0,23.1a.93.93,0,0,0,.34.71l.06.06,1.16.78a.93.93,0,0,0,1.12-1.48l-.82-.56V19.9h1.74a.51.51,0,0,1,.53.57Z"/><path d="M38.07,26.52H30.56a.93.93,0,0,0,0,1.86h7.51a.93.93,0,0,0,0-1.86Z"/><path d="M38.07,30.62H30.56a.93.93,0,1,0,0,1.86h7.51a.93.93,0,0,0,0-1.86Z"/><path d="M38.07,34.83H30.56a.93.93,0,1,0,0,1.86h7.51a.93.93,0,0,0,0-1.86Z"/><path d="M38.07,39.17H30.56a.93.93,0,1,0,0,1.86h7.51a.93.93,0,0,0,0-1.86Z"/><path d="M26.4,34.83H18.48a.93.93,0,1,0,0,1.86H26.4a.93.93,0,0,0,0-1.86Z"/><path d="M26.4,39.17H18.48a.93.93,0,1,0,0,1.86H26.4a.93.93,0,0,0,0-1.86Z"/></g></svg>