<svg xmlns="http://www.w3.org/2000/svg" width="60" height="60" viewBox="0 0 60 60"><defs><style>.cls-1{fill:#d76d35;}.cls-2{fill:#d76e37;}.cls-3{fill:#d86f38;}.cls-4{fill:none;}</style></defs><title>paper</title><g id="Calque_2" data-name="Calque 2"><path class="cls-1" d="M43.12,31.29V47.7c0,1-.12,1.14-1.14,1.14H19.72a2.6,2.6,0,0,1-.56,0,.57.57,0,0,1-.54-.55.6.6,0,0,1,.5-.67,3.32,3.32,0,0,1,.77,0c7.05,0,14.09,0,21.14,0,.64,0,.83-.16.83-.82q0-15.84,0-31.7c0-.52-.16-1.24.62-1.26s.65.71.65,1.23Z"/><path class="cls-2" d="M28.33,29.38H21.08a4.56,4.56,0,0,1-.64,0,.58.58,0,0,1-.55-.54.6.6,0,0,1,.51-.66,2.52,2.52,0,0,1,.62,0H36c.44,0,.83.17.8.68s-.4.58-.81.58Z"/><path class="cls-2" d="M28.25,33.19H21a2.64,2.64,0,0,1-.63,0,.57.57,0,0,1-.49-.53.6.6,0,0,1,.39-.61,1.52,1.52,0,0,1,.76-.09H36c.41,0,.78.17.79.63s-.38.64-.83.64Z"/><path class="cls-2" d="M28.28,37H21a3.29,3.29,0,0,1-.63,0,.58.58,0,0,1-.52-.58.56.56,0,0,1,.43-.58,2.77,2.77,0,0,1,.76-.08H35.79c.47,0,1,.07,1,.66s-.49.61-.93.61Z"/><path class="cls-2" d="M28.25,41.22H21a3.29,3.29,0,0,1-.63,0,.59.59,0,0,1-.49-.54.61.61,0,0,1,.39-.61A1.67,1.67,0,0,1,21,40H36c.41,0,.78.16.79.63s-.38.63-.83.63Z"/><path class="cls-3" d="M23,21.77H20.65c-.42,0-.76-.15-.76-.62s.33-.65.76-.65h4.77c.42,0,.75.19.76.64s-.33.63-.76.63Z"/><path class="cls-3" d="M22.94,25.58H20.68c-.42,0-.78-.13-.79-.61s.36-.66.81-.66h4.65c.46,0,.83.15.83.65s-.41.62-.85.62Z"/><path class="cls-4" d="M39.3,28.76q0-7.74,0-15.49c0-.55-.09-.8-.72-.8q-7.71,0-15.42,0c-.5,0-.66.18-.65.66,0,1.2,0,2.4,0,3.59,0,.78-.25,1-1,1-1.12,0-2.25,0-3.38,0-.59,0-.8.12-.8.77q0,12.86,0,25.71c0,.66.2.82.83.81q10.19,0,20.36,0c.67,0,.81-.21.81-.84C39.29,39.05,39.3,33.91,39.3,28.76Z"/><path class="cls-1" d="M40.58,12.31c0-1-.16-1.11-1.1-1.11H22.3a1.6,1.6,0,0,0-1.24.51Q18.87,14,16.63,16.15a1.86,1.86,0,0,0-.58,1.43q0,13.77,0,27.54c0,1.07.11,1.18,1.16,1.18H39.41c1.07,0,1.17-.1,1.17-1.16V12.31Zm-21.18,3c.42-.48.88-.91,1.33-1.35.09-.1.19-.24.35-.19s.15.23.15.36v1.83c0,.36-.19.49-.53.48h-.91c-.36-.06-1.05.2-1.17-.11S19.1,15.6,19.4,15.27ZM38.51,45q-10.18,0-20.36,0c-.63,0-.83-.15-.83-.81q0-12.85,0-25.71c0-.65.21-.79.8-.77,1.13,0,2.26,0,3.38,0,.78,0,1-.24,1-1,0-1.19,0-2.39,0-3.59,0-.48.15-.66.65-.66q7.71,0,15.42,0c.63,0,.73.25.72.8q0,7.74,0,15.49c0,5.15,0,10.29,0,15.43C39.32,44.82,39.18,45,38.51,45Z"/><path class="cls-1" d="M36.78,17.21c0-.65-.27-.95-.92-.94-1.93,0-3.85,0-5.78,0-.66,0-.93.3-.92.95,0,.94,0,1.88,0,2.82s0,2,0,3c0,.62.27.89.89.89q2.93,0,5.85,0c.63,0,.89-.28.88-.9C36.77,21.06,36.77,19.14,36.78,17.21Zm-1.27,2.92c0,.66,0,1.32,0,2,0,.34-.07.52-.46.51-1.38,0-2.77,0-4.15,0-.32,0-.47-.09-.47-.44,0-1.39,0-2.77,0-4.15,0-.38.15-.5.5-.49q2,0,4.08,0c.43,0,.51.18.5.55C35.5,18.77,35.51,19.45,35.51,20.13Z"/></g></svg>