<svg id="Calque_1" data-name="Calque 1" xmlns="http://www.w3.org/2000/svg" width="542.43" height="320.97" viewBox="0 0 542.43 320.97"><defs><style>.cls-1{fill:#009e00;}</style></defs><title>picto1</title><path class="cls-1" d="M38.49,284.17c0-5.64,0-10.61,0-15.57,0-3.7,2.76-3.09,5-3.1q26,0,52,0c7.18,0,7.18,0,7.18-7.09,0-56.5-.06-113,.12-169.49,0-5-1.2-6.73-6.35-6.49-8.65.41-17.33,0-26,.16-3.3.07-4.29-1.23-4.45-4.37-.77-14.66-.84-14.67,14-14.67q186,0,372,.09h8.12V57.79c0-15.67,0-31.33,0-47C460.1,2.84,462.61.2,470.45.13c11.33-.11,22.67-.28,34,.12,20.1.7,37.07,17.91,37.86,38,.21,5.33.1,10.67.1,16q0,102.24-.06,204.48c0,10.44.21,21.09-1.72,31.26-3.26,17.22-20.27,30.32-37.75,30.84-1.5,0-3,0-4.5,0L91.4,321c-7.33,0-7.33,0-7.33-7.2,0-11.57,0-11.57,11.69-11.6,6.91,0,6.91,0,6.92-6.81,0-11.19,0-11.19-11.37-11.19ZM459.46,83H121.05V294.54c0,7.62,0,7.63,7.5,7.63q183.72.09,367.44.15a68.46,68.46,0,0,0,8.47-.44,22.5,22.5,0,0,0,17.45-31.61c-4.41-9.63-12.42-13.51-22.46-13.74-9.66-.22-19.33.05-29-.12-7.27-.12-10.24-3.24-10.38-10.41a73.41,73.41,0,0,1,.06-10.49c.68-5.27-1.51-6.37-6.41-6.37q-151.23.23-302.46.17c-12.11,0-12.11.06-12.06-12.22,0-6.61,0-6.6,6.52-6.6q154,0,308,0c2.07,0,4.14-.25,5.78-.36Z"/><path class="cls-1" d="M9.69,63.45a9.48,9.48,0,0,1,0,19,9.48,9.48,0,1,1,0-19Z"/><path class="cls-1" d="M16.76,282.45a9.64,9.64,0,0,1-9.67-9.36c0-5.15,4.88-10,10-9.83a9.81,9.81,0,0,1,9.2,9.89A9.11,9.11,0,0,1,16.76,282.45Z"/><path class="cls-1" d="M52.92,72.36a9.64,9.64,0,0,1-9.5,10,10,10,0,0,1-9.51-9.65,9.38,9.38,0,0,1,9.45-9.4C49,63.21,52.82,66.88,52.92,72.36Z"/><path class="cls-1" d="M282.93,93.27c18.5,0,37-.11,55.49.06,7.66.07,14,3.09,17.27,10.47a18.6,18.6,0,0,1,1.25,7.24c.09,21.83-.31,43.67.2,65.49.26,11.51-8.86,17.56-17.17,18.26-1.49.13-3,.1-4.5.1q-52.73,0-105.47,0c-15.09,0-21.69-6.56-21.69-21.44,0-3-.17-6,0-9,.26-3.59-.67-5.83-4.19-7.83-11.2-6.38-10.91-19.7.49-25.79,2.87-1.53,3.84-3.11,3.7-6.1-.18-3.83,0-7.66,0-11.5,0-12.89,7.06-19.92,20.14-20C246.61,93.23,264.77,93.26,282.93,93.27Zm-38.25,24.44v52.72H221.12c-1.89,10.9.18,14.06,10.72,14,33.81-.32,67.63-.12,101.44-.13,8.2,0,9.71-1.48,9.71-9.49q0-30.48,0-61c0-8.5-1.37-9.9-9.79-9.91-34.15,0-68.3.18-102.44-.13-8.23-.07-12.28,2.67-9.22,13.95Zm-22.62,20.9c-4.89.7-11.6-1-11.58,5.46,0,6.81,7.2,4.42,11.79,5.8a50.78,50.78,0,0,1,0,5.53c-.41,3.59,1.21,4.86,4.6,4.52a15.66,15.66,0,0,1,3.49,0c3.42.42,4.28-1.25,4.21-4.37-.16-6.83,0-13.67,0-20.5s0-6.56-6.65-6.88c-4.34-.21-6.26,1-5.61,5.54A29.31,29.31,0,0,1,222.06,138.61Z"/><path class="cls-1" d="M286.68,173.37c-5.79-9.08-11.18-17.54-16.67-26.17,7.11-2,8.21-1.61,11.23,4,1.56,2.9,3.11,5.81,5.29,9.9l37.76-45.37,1.67.5c-.72,3.49-.42,7.75-2.35,10.34-11.2,15.06-22.93,29.73-34.5,44.51A27.16,27.16,0,0,1,286.68,173.37Z"/></svg>