<svg id="Calque_1" data-name="Calque 1" xmlns="http://www.w3.org/2000/svg" width="39.65" height="23.54" viewBox="0 0 39.65 23.54"><defs><style>.cls-1{fill:#d76e37;}.cls-2{fill:#d86f38;}.cls-3{fill:#d76d35;}</style></defs><title>shape1</title><g id="Calque_2" data-name="Calque 2"><path class="cls-1" d="M.68,4.69a.72.72,0,0,1,.7.64A.67.67,0,0,1,.72,6h0A.7.7,0,0,1,0,5.36.75.75,0,0,1,.68,4.69Z"/><path class="cls-2" d="M3.85,5.35A.67.67,0,0,1,3.18,6h0a.71.71,0,0,1-.69-.66.69.69,0,0,1,.7-.68h0a.65.65,0,0,1,.66.64Z"/><path class="cls-1" d="M4.76,23.54a.64.64,0,0,1-.67-.61v0a.65.65,0,0,1,.63-.67h0a.66.66,0,0,1,0,1.32h0Z"/><path class="cls-1" d="M1.89,20a.69.69,0,0,1-.66.69A.78.78,0,0,1,.53,20a.74.74,0,0,1,.7-.7A.71.71,0,0,1,1.89,20Z"/><path class="cls-3" d="M39.65,3.45V2.87A3,3,0,0,0,37.27.1,17,17,0,0,0,34.6,0c-.67,0-.93.24-.93.91V4.2c0,.51,0,.51-.5.51H5.79c-1,0-.94,0-.94,1,0,.26.08.36.35.36h2c.27,0,.36.07.36.35V19.13c0,.27-.08.36-.35.35H3.79c-1,0-1,0-1,1,0,.27.1.33.34.33H6.61c.88,0,.88,0,.88.87,0,.49,0,.49-.49.49-.84,0-.84,0-.84.84,0,.47,0,.47.48.47H36.93a3,3,0,0,0,2.71-2.75V18.92C39.66,13.77,39.65,8.59,39.65,3.45ZM37.45,22a2.31,2.31,0,0,1-1.1.19h-27c-.49,0-.49,0-.49-.46V6.51c0-.49,0-.49.5-.49H33.21c.38,0,.49.1.46.47s0,1,0,1.55v6.9c0,.53,0,.53-.52.53H10.71c-.49,0-.49,0-.49.49,0,.82,0,.82.81.82H33.2c.36,0,.52.07.47.46s0,.53,0,.79a.69.69,0,0,0,.63.74.56.56,0,0,0,.13,0h2.25A1.74,1.74,0,0,1,38.31,20,1.71,1.71,0,0,1,37.45,22Z"/></g></svg>