<svg id="Calque_1" data-name="Calque 1" xmlns="http://www.w3.org/2000/svg" width="31" height="31" viewBox="0 0 31 31"><defs><style>.cls-1{fill:#f4810f;}.cls-2{fill:#4e5b59;}</style></defs><title>boue</title><g id="Group-3"><g id="_Groupe_" data-name="&lt;Groupe&gt;"><path class="cls-1" d="M26,5.83A14.22,14.22,0,0,1,26.13,25l-4.29-3.87a8.43,8.43,0,0,0,0-11.28Z"/><path class="cls-1" d="M7,15.5a8.4,8.4,0,0,0,2.18,5.68L5.13,25.3a14.28,14.28,0,0,1-.52-19l4.27,3.91A8.42,8.42,0,0,0,7,15.5Z"/><path class="cls-2" d="M7,15.5a8.42,8.42,0,0,1,1.87-5.32L4.61,6.27a14.28,14.28,0,0,0,.52,19l4.06-4.12A8.4,8.4,0,0,1,7,15.5Zm24,0A15.5,15.5,0,1,1,15.5,0,15.53,15.53,0,0,1,31,15.5ZM21,9l4.14-4a14.27,14.27,0,0,0-19.67.43L9.71,9.29A8.5,8.5,0,0,1,21,9Zm1.8,6.5a7.27,7.27,0,1,0-7.27,7.27A7.28,7.28,0,0,0,22.77,15.5Zm-.93,5.65L26.13,25A14.22,14.22,0,0,0,26,5.83l-4.13,4a8.43,8.43,0,0,1,0,11.28Zm3.43,4.74L21,22a8.51,8.51,0,0,1-10.9,0L6,26.15a14.26,14.26,0,0,0,19.27-.26Z"/></g></g></svg>