<svg xmlns="http://www.w3.org/2000/svg" width="60" height="60" viewBox="0 0 60 60"><defs><style>.cls-1{fill:#bbbbb9;}</style></defs><title>brush</title><g id="Calque_2" data-name="Calque 2"><path class="cls-1" d="M43.94,12.35a6.26,6.26,0,0,0-.75,0H14.53a7.54,7.54,0,0,0-.82.06.88.88,0,0,0-.84,1c0,6.1,0,12.19,0,18.29a2.29,2.29,0,0,0,1.35,2.19,5.42,5.42,0,0,0,2.23.54,40,40,0,0,1,4.9.14,2.79,2.79,0,0,1,2.56,2.91c0,3.16,0,6.33,0,9.49a3.21,3.21,0,0,0,1.56,2.91,6.26,6.26,0,0,0,6.16.49A3.6,3.6,0,0,0,34,46.66c-.06-3,0-6.06,0-9.08a2.8,2.8,0,0,1,2.55-3,28.86,28.86,0,0,1,4.83-.14,5.79,5.79,0,0,0,2-.41,2.49,2.49,0,0,0,1.71-2.52V13.58C45.07,12.62,44.9,12.43,43.94,12.35ZM15.55,13.69a12.19,12.19,0,0,0,1.91,0c.63,0,.76.2.74.78,0,1.43,0,2.87,0,4.3,0,.72.32,1.09.91,1.08s.86-.37.89-1.07c.05-1.52-.08-3,.08-4.56,0-.43.2-.53.59-.52.61,0,1.22,0,1.84,0s.61.15.61.62c0,2.87,0,5.73,0,8.6,0,.75.34,1.1,1,1s.8-.49.8-1.06q0-4.12,0-8.25c0-1,.08-1,1.06-1.05h1.43c.45,0,.65.19.64.67,0,.93,0,1.86,0,2.79,0,.73.25,1,.87,1s1-.27,1-1c0-.91,0-1.82,0-2.73,0-.49.1-.72.64-.68a11.62,11.62,0,0,0,1.77,0c.47,0,.64.13.63.62,0,1.45,0,2.91,0,4.36,0,.8.29,1.19.9,1.18s1-.45,1-1.19c0-1.46,0-2.91,0-4.37,0-.43.13-.62.58-.59.64,0,1.28,0,1.91,0,.42,0,.56.14.55.55,0,.75,0,1.5,0,2.25s.36.85.89.89a.82.82,0,0,0,1-.86c0-.77,0-1.54,0-2.32,0-.32.07-.52.45-.51.84,0,1.68,0,2.52,0,.38,0,.46.18.46.51q0,6.14,0,12.27c0,.65-.38.6-.81.6H29c-4.45,0-8.91,0-13.37,0-.65,0-.85-.18-.85-.84q0-5.91,0-11.8C14.77,13.81,15,13.64,15.55,13.69ZM43.18,29.26c0,.77,0,1.55,0,2.32,0,1-.45,1.49-1.49,1.52s-2.23-.05-3.34,0a8.91,8.91,0,0,0-4.25,1,3.72,3.72,0,0,0-2,3.34c0,3.23-.05,6.46,0,9.68a2.48,2.48,0,0,1-1.7,2.28,4.16,4.16,0,0,1-3.65-.35,2,2,0,0,1-1-1.82c0-3.23,0-6.46,0-9.68a3.93,3.93,0,0,0-2.73-3.82,12.21,12.21,0,0,0-3.73-.63c-1.05,0-2.09,0-3.14,0a1.32,1.32,0,0,1-1.45-1.5c0-.82,0-1.64,0-2.46,0-.57.18-.72.73-.72,4.51,0,9,0,13.51,0s8.91,0,13.36,0C43,28.42,43.23,28.61,43.18,29.26Z"/></g></svg>