<svg xmlns="http://www.w3.org/2000/svg" width="60" height="60" viewBox="0 0 60 60"><defs><style>.cls-1{fill:#bbbbb9;}</style></defs><title>ckeck</title><g id="Calque_2" data-name="Calque 2"><path class="cls-1" d="M28.51,39.77a4.94,4.94,0,0,1-3.3-1.33c-1.17-1-2.36-1.9-3.53-2.88-.37-.32-1-.59-.58-1.27.24-.38,1-.31,1.56.13,1.48,1.17,2.93,2.38,4.42,3.55a2.27,2.27,0,0,0,3.14-.43c1.69-2,3.42-4,5.14-6.06.81-.95,1.62-1.89,2.42-2.84a1,1,0,0,1,.84-.4c.3,0,.56.08.68.37a.68.68,0,0,1-.15.76L33.55,36c-.58.69-1.16,1.38-1.72,2.08A4,4,0,0,1,28.51,39.77Z"/><path class="cls-1" d="M45.48,35.17c0,.56.08,1,.81,1s.85-.42.85-1c0-4.79,0-9.57,0-14.36a4.31,4.31,0,0,0-1.29-3,6.78,6.78,0,0,0-4.84-2c-2-.06-4,0-6,0-.45,0-.63-.13-.61-.59s0-1.2,0-1.8c0-1-.2-1.21-1.22-1.21H26.91c-1.07,0-1.29.23-1.29,1.3V14c0,1.81,0,1.76-1.8,1.82-2.34.07-4.71-.31-7,.39-1.91.58-3.93,2.41-3.94,4.73q0,10.89,0,21.78a4.12,4.12,0,0,0,.7,2.29A6.31,6.31,0,0,0,19,47.8c3.66.07,7.31,0,11,0H40.06a9.27,9.27,0,0,0,3.14-.41,5.27,5.27,0,0,0,3.9-4.14c.09-.52,0-1-.6-1.13s-.89.16-1,.81A4,4,0,0,1,45,44.32a4.75,4.75,0,0,1-4.33,2.11H19.34A7.09,7.09,0,0,1,18,46.29a4,4,0,0,1-3.45-4.11c.05-7,0-14,0-21a3.61,3.61,0,0,1,.58-2,4.65,4.65,0,0,1,4.12-2c1.87,0,3.75,0,5.62,0,.61,0,.82.19.79.8a3.59,3.59,0,0,0,.41,2.2,4.44,4.44,0,0,0,3,2,4.84,4.84,0,0,0,4.82-1.82,4,4,0,0,0,.48-2.47c0-.44.09-.71.61-.69,2.26.07,4.52-.11,6.78.11a4.07,4.07,0,0,1,3.74,4.11C45.41,26,45.48,30.57,45.48,35.17ZM30,20.87c-1.76-.21-2.82-1.28-2.73-2.82.07-1.29,0-2.59,0-3.88,0-.47.12-.66.62-.65,1.41,0,2.82,0,4.23,0,.44,0,.62.13.6.59,0,.79,0,1.57,0,2.36C32.82,19.07,32.66,20.88,30,20.87Z"/></g></svg>