<svg id="Calque_1" data-name="Calque 1" xmlns="http://www.w3.org/2000/svg" width="542.36" height="320.87" viewBox="0 0 542.36 320.87"><defs><style>.cls-1{fill:#009e00;}</style></defs><title>picto2</title><path class="cls-1" d="M66.1,63.55H460V57.67c0-15.5,0-31,0-46.5,0-8.69,2.33-11,10.93-11.09,11.33-.06,22.68-.21,34,.17,16.41.57,31.72,13.26,35.54,29.34a63,63,0,0,1,1.78,14.26q.16,107.75,0,215.48c0,10.4.07,21-1.9,31.14-3.26,16.76-20.05,29.69-37.1,30.35-1.83.07-3.67.05-5.5.05H91.29c-7.18,0-7.18,0-7.18-7.36,0-11.18,0-11.18,11-11.2,7.53,0,7.53,0,7.53-7.75,0-10.46,0-10.46-10.6-10.46H38.46c0-5.61-.27-10.73.23-15.78.1-1.05,3.05-2.59,4.7-2.6,17.16-.2,34.32-.12,51.49-.13,7.77,0,7.77,0,7.77-7.54q0-84.74.1-169.48c0-4.7-1.12-6.51-6.08-6.3-8.65.37-17.33,0-26,.16-3.5.08-4.79-1.14-4.63-4.61C66.26,73.35,66.1,68.88,66.1,63.55ZM460,210.52c0-2.74,0-4.56,0-6.36-.42-18.78-1.18-37.55-1.17-56.33,0-19.6.79-39.19,1.15-58.79.13-6.65,0-6.67-6.42-6.67q-163.21,0-326.43-.1c-5,0-6.43,1.3-6.42,6.41q.27,103.23.12,206.45c0,7.17,0,7.18,7,7.18q184.2,0,368.41,0a64.87,64.87,0,0,0,8.48-.48c14.29-1.92,23.06-17.74,17.3-31-4.4-10.13-12.62-14.12-23.08-14.31-9.33-.17-18.66,0-28-.08-8-.1-10.8-3-11-10.83-.06-3,0-6,0-9,0-7.37,0-7.38-7.29-7.38q-151.21,0-302.43,0c-12.44,0-10.88,2-11-11.22-.06-7.43,0-7.43,7.64-7.43H460Z"/><path class="cls-1" d="M16.78,282.33a9.47,9.47,0,0,1-9.65-9.27,10.06,10.06,0,0,1,9.49-9.72c5-.07,9.53,4.48,9.58,9.56A9.29,9.29,0,0,1,16.78,282.33Z"/><path class="cls-1" d="M9.33,63.48A9.51,9.51,0,0,1,19,72.7,9.63,9.63,0,0,1,9.6,82.26a9.39,9.39,0,1,1-.27-18.78Z"/><path class="cls-1" d="M43.14,63.28c5.68-.1,9.47,3.55,9.53,9.18a9.35,9.35,0,0,1-9.24,9.71,9.88,9.88,0,0,1-9.55-9.68A9.36,9.36,0,0,1,43.14,63.28Z"/><path class="cls-1" d="M452.68,146.88c.43,14.06,2.71,14-12.21,16.67-6.69,1.2-13.24,3.36-20,4.28-3.39.46-7-.83-10.54-1.43-4.48-.76-9-2.45-13.4-2.32-24.31.72-48.6,2-72.91,2.76-4.48.14-6,1.46-5.42,5.79.33,2.63-.06,5.34.21,8,.45,4.38-1.73,6.09-5.73,6.29-7.71.38-15.13,1.47-22.62-3.16-3.47-2.14-10.11-1.63-14.17.2a65.47,65.47,0,0,1-26,5.63c-21,.53-41.95,1.66-62.91,2.65-16.41.77-29.27-6.6-35.6-20.57-8.88-19.63,3-44,24.29-46.86,18.42-2.51,37.18-2.48,55.79-3.48,7.65-.41,15.33-1.07,23-.71a61.54,61.54,0,0,1,16.94,3.26c7.25,2.5,13.48,2,19.74-2.54,6.73-4.9,14.66-3.21,22.17-2.73,1.11.08,2.53,3.27,2.89,5.19a35.86,35.86,0,0,1,.27,9c-.28,3.65,1.31,4.54,4.66,4.38,26.63-1.25,53.27-2.36,79.89-3.63a9.66,9.66,0,0,0,5.06-1.78c5.06-3.75,10.64-4.22,16.58-3.37,8.24,1.18,16.48,2.37,24.74,3.34,3.15.38,4.32,2.14,4.55,4.92C452.25,140.43,452.49,144.26,452.68,146.88Zm-232.82-16.8,0-.37c-13.14.68-26.29,1.18-39.4,2.14a27.44,27.44,0,0,0-10.38,3c-11.16,5.78-15.94,17.61-12.77,30.48,2.64,10.72,13.45,19.21,25.24,18.84,24-.74,47.9-2.1,71.86-2.9a36.87,36.87,0,0,0,17.13-4.34c8.45-4.63,16.74-3.6,25.29.44,3.33,1.58,7.6,1.33,11.46,1.52.6,0,1.9-2.13,1.87-3.24q-.79-23-1.95-45.91c-.06-1.11-1.11-3.12-1.6-3.09-3.71.24-8.16-.27-10.95,1.59-9.21,6.12-18.26,6.78-28.32,2.5a31.37,31.37,0,0,0-12.54-2.33C243.13,128.61,231.5,129.48,219.86,130.08Zm224.69,9.33c-4.17-.56-7.45-1-10.74-1.43-9.41-1.14-18.89-4.11-27.74,2.57-1.86,1.41-5.1,1.27-7.72,1.38-25.29,1.08-50.58,2-75.87,3.11-1.61.07-4.54.54-4.58,1a42,42,0,0,0,.14,11.2c.16.91,3.47,1.85,5.29,1.79q36.19-1.29,72.38-2.92c6.39-.29,12.59-.41,18.29,3.23a6.55,6.55,0,0,0,4.36.58c7.82-1.5,15.63-3.09,23.38-5a4.54,4.54,0,0,0,2.68-3.26C444.76,147.81,444.55,143.82,444.55,139.41Z"/><path class="cls-1" d="M219.77,168.53c-11.65.54-23.29,1.25-35,1.58-6.2.18-10.82-3.79-12.26-9.71-1.31-5.38,1.06-10.44,6.37-13.33a9.29,9.29,0,0,1,3.74-1.17c24.29-1.2,48.58-2.44,72.88-3.41,5.88-.23,11.17,4.47,12.25,9.85,1.2,5.93-1.2,10.93-6.78,13.53a14.8,14.8,0,0,1-5.3,1.09c-12,.66-24,1.22-35.94,1.81Zm-.52-6.62v-2c7,0,14,.09,20.95,0a113.24,113.24,0,0,0,15.43-.9c1.74-.27,3.14-2.77,4.7-4.25-1.81-1.29-3.64-3.75-5.41-3.7-23,.56-45.92,1.44-68.87,2.38-2.85.11-6,.87-5.71,4.78.28,3.59,3.19,3.74,6,3.74Z"/></svg>