<svg id="Calque_1" data-name="Calque 1" xmlns="http://www.w3.org/2000/svg" width="21" height="17.5" viewBox="0 0 21 17.5"><defs><style>.cls-1{fill:#030104;}</style></defs><title>print</title><path class="cls-1" d="M8.28,11.25v1.66h4.44V10.14H8.28Zm.56-.56h3.32v.56H8.84Zm0,1.11h3.32v.55H8.84Z"/><polygon class="cls-1" points="12.72 6.25 12.72 4.59 8.28 4.59 8.28 6.25 8.28 7.36 12.72 7.36 12.72 6.25"/><path class="cls-1" d="M13.83,6.25h-.56V7.92H7.73V6.25H7.17A1.2,1.2,0,0,0,6.06,7.36v2.78a1.2,1.2,0,0,0,1.11,1.11h.56V9.58h5.54v1.67h.56a1.2,1.2,0,0,0,1.11-1.11V7.36A1.2,1.2,0,0,0,13.83,6.25Z"/></svg>