<svg id="Calque_1" data-name="Calque 1" xmlns="http://www.w3.org/2000/svg" width="60" height="60" viewBox="0 0 60 60"><title>bouee</title><path d="M30,8.3A21.7,21.7,0,1,0,51.7,30,21.73,21.73,0,0,0,30,8.3Zm0,1a20.62,20.62,0,0,1,13.82,5.34L37.55,21.2a11.56,11.56,0,0,0-15.3.19l-6.58-6.28A20.58,20.58,0,0,1,30,9.3ZM40.6,30A10.6,10.6,0,1,1,30,19.4,10.61,10.61,0,0,1,40.6,30ZM9.3,30A20.61,20.61,0,0,1,15,15.82l6.57,6.27a11.56,11.56,0,0,0-.47,15.31L14.78,44A20.56,20.56,0,0,1,9.3,30ZM30,50.7a20.62,20.62,0,0,1-14.54-6l6.28-6.57a11.58,11.58,0,0,0,16,.46l6.57,6.29A20.63,20.63,0,0,1,30,50.7Zm15-6.53-6.56-6.28a11.56,11.56,0,0,0-.2-16l6.28-6.57A20.61,20.61,0,0,1,45,44.17Z"/></svg>