<svg xmlns="http://www.w3.org/2000/svg" width="60" height="60" viewBox="0 0 60 60"><title>dll-pdf</title><g id="Calque_2" data-name="Calque 2"><path d="M40.52,28.05V20.29a.88.88,0,0,0-.25-.59l-8.69-9.14A.89.89,0,0,0,31,10.3H17.16a4.59,4.59,0,0,0-4.58,4.62V41a4.56,4.56,0,0,0,4.58,4.59H28.05A11.75,11.75,0,1,0,40.52,28.05ZM31.81,13.3l5.83,6.14H33.86a2.06,2.06,0,0,1-2.05-2.06ZM27.24,35.09H19.48a.85.85,0,0,0-.85.85.86.86,0,0,0,.85.86h7.21a11.14,11.14,0,0,0-.33,2.75,11.34,11.34,0,0,0,.84,4.34h-10A2.86,2.86,0,0,1,14.29,41V14.92A2.89,2.89,0,0,1,17.16,12H30.1v5.37a3.76,3.76,0,0,0,3.76,3.77h5v6.68c-.25,0-.46,0-.68,0a11.93,11.93,0,0,0-7.79,2.94H19.48a.86.86,0,0,0-.85.86.85.85,0,0,0,.85.85h9.27A13.7,13.7,0,0,0,27.24,35.09ZM38.12,49.6a10,10,0,1,1,10-10A10,10,0,0,1,38.12,49.6Z"/><path d="M19.48,28.16h8.66a.86.86,0,1,0,0-1.71H19.48a.85.85,0,0,0-.85.85A.86.86,0,0,0,19.48,28.16Z"/><path d="M33.64,37.37a7.18,7.18,0,0,0-1.33.1v4.7h.86v-1.8a2.5,2.5,0,0,0,.42,0,2.1,2.1,0,0,0,1.51-.51,1.43,1.43,0,0,0,.41-1.08A1.32,1.32,0,0,0,35,37.76,2.11,2.11,0,0,0,33.64,37.37Zm0,2.35a1.72,1.72,0,0,1-.42,0V38.08a2.31,2.31,0,0,1,.5,0c.6,0,1,.29,1,.82S34.24,39.72,33.59,39.72Z"/><path d="M38,37.37a9.23,9.23,0,0,0-1.39.1v4.68a8.64,8.64,0,0,0,1.18.07,3.17,3.17,0,0,0,2.15-.65,2.48,2.48,0,0,0,.74-1.9,2.13,2.13,0,0,0-.74-1.75A2.88,2.88,0,0,0,38,37.37Zm0,4.15a3.47,3.47,0,0,1-.48,0V38.1a2.7,2.7,0,0,1,.6-.05,1.51,1.51,0,0,1,1.68,1.65A1.63,1.63,0,0,1,38,41.52Z"/><polygon points="41.8 42.17 42.66 42.17 42.66 40.15 44.42 40.15 44.42 39.43 42.66 39.43 42.66 38.12 44.54 38.12 44.54 37.41 41.8 37.41 41.8 42.17"/></g></svg>