<?xml version="1.0" encoding="UTF-8"?>
<svg width="107px" height="107px" viewBox="0 0 107 107" version="1.1" xmlns="http://www.w3.org/2000/svg" xmlns:xlink="http://www.w3.org/1999/xlink">
    <!-- Generator: sketchtool 57.1 (101010) - https://sketch.com -->
    <title>935F4F79-1020-493C-ACF5-41F4DAA55840@1,5x</title>
    <desc>Created with sketchtool.</desc>
    <defs>
        <path d="M52.2202888,0.435891061 L0.810388922,40.2199888 C0.336979905,40.5876653 0.0422930246,41.1402032 0.00409287334,41.7391271 L0.00409287334,41.7391271 C0.00204643667,41.7670951 0,41.7943809 0,41.8216667 L0,41.8216667 L0,41.9239886 C0.0129607656,42.4574265 0.230565198,42.9683535 0.610520274,43.3483087 L0.610520274,43.3483087 L8.01862103,50.7816496 C8.42313334,51.1882084 8.95998189,51.3962629 9.49955903,51.3962629 L9.49955903,51.3962629 C9.94704652,51.3962629 10.399309,51.2523301 10.7778998,50.9596897 L10.7778998,50.9596897 L13.7936653,48.6253873 L13.7936653,92.7793099 L9.19600426,92.7793099 C8.04181397,92.7793099 7.10522812,93.7145316 7.10522812,94.8694042 L7.10522812,94.8694042 L7.10522812,104.909906 C7.10522812,106.064096 8.04181397,107 9.19600426,107 L9.19600426,107 L97.8046657,107 C98.958856,107 99.8940776,106.064096 99.8940776,104.909906 L99.8940776,104.909906 L99.8940776,94.8694042 C99.8940776,93.7145316 98.958856,92.7793099 97.8046657,92.7793099 L97.8046657,92.7793099 L93.2063225,92.7793099 L93.2063225,80.9700047 C93.2063225,79.8158143 92.2717831,78.8805926 91.1169107,78.8805926 L91.1169107,78.8805926 C89.9627204,78.8805926 89.0274988,79.8158143 89.0274988,80.9700047 L89.0274988,80.9700047 L89.0274988,92.7793099 L17.9731711,92.7793099 L17.9731711,45.3913348 L53.5,17.8981372 L89.0274988,45.3913348 L89.0274988,64.2512974 C89.0274988,65.4054878 89.9627204,66.3413916 91.1169107,66.3413916 L91.1169107,66.3413916 C92.2717831,66.3413916 93.2063225,65.4054878 93.2063225,64.2512974 L93.2063225,64.2512974 L93.2063225,48.6253873 L96.2111737,50.9501396 C97.0427091,51.5927208 98.2241852,51.5183669 98.9677239,50.7748282 L98.9677239,50.7748282 L106.388785,43.3510372 C106.812398,42.9260605 107.033413,42.3394153 106.995895,41.7411735 L106.995895,41.7411735 C106.957695,41.1422497 106.66369,40.5883474 106.188917,40.2206709 L106.188917,40.2206709 L93.433477,30.3500236 L93.433477,11.2847352 C93.433477,10.1305448 92.4982554,9.19464101 91.3440651,9.19464101 L91.3440651,9.19464101 L79.641176,9.19464101 C78.4869857,9.19464101 77.5517641,10.1305448 77.5517641,11.2847352 L77.5517641,11.2847352 L77.5517641,18.0591235 L54.779699,0.435891061 C54.4024725,0.14529702 53.9515743,0 53.5,0 L53.5,0 C53.0490957,0 52.5975153,0.14529702 52.2202888,0.435891061 L52.2202888,0.435891061 Z M5.24297075,42.0761071 L53.4999939,4.73136212 L101.754971,42.0740606 L97.3135209,46.5182394 L54.779699,13.6026661 C54.0259281,13.0201137 52.9747418,13.0201137 52.2202888,13.6026661 L52.2202888,13.6026661 L9.67691688,46.525743 L5.24297075,42.0761071 Z M81.7312699,21.293176 L81.7312699,13.3748295 L89.2546533,13.3748295 L89.2546533,27.115289 L81.7312699,21.293176 Z M11.2854161,102.819129 L95.7152539,102.819129 L95.7152539,96.9588163 L11.2854161,96.9588163 L11.2854161,102.819129 Z" id="path-1"></path>
    </defs>
    <g id="Page-1" stroke="none" stroke-width="1" fill="none" fill-rule="evenodd">
        <g id="00_00_Home" transform="translate(-1030.000000, -246.000000)">
            <g id="Group-6" transform="translate(1.000000, 221.000000)">
                <g id="Group-15" transform="translate(951.000000, 21.000000)">
                    <g id="Group-3" transform="translate(78.000000, 4.000000)">
                        <mask id="mask-2" fill="white">
                            <use xlink:href="#path-1"></use>
                        </mask>
                        <g id="Clip-2"></g>
                        <polygon id="Fill-1" fill="#0F9A09" mask="url(#mask-2)" points="-4 110 110 110 110 -4 -4 -4"></polygon>
                    </g>
                </g>
            </g>
        </g>
    </g>
</svg>