<svg id="Calque_1" data-name="Calque 1" xmlns="http://www.w3.org/2000/svg" width="30" height="34.76" viewBox="0 0 30 34.76"><defs><style>.cls-1{fill:#fff;}</style></defs><title>viadeo-white</title><g id="TQ7cAU.tif"><path class="cls-1" d="M18.62,10.42a18.26,18.26,0,0,1,.75,11.75,18.36,18.36,0,0,1-6.89,9.67c.36,0,.72,0,1.07-.08a8.9,8.9,0,0,0,7.62-6.82,9.75,9.75,0,0,0-.33-6.35.86.86,0,0,1-.05-.15,9.21,9.21,0,0,0,2.86-1.16c.08.19.15.35.21.53a12.9,12.9,0,0,1-.31,9.56,11.91,11.91,0,0,1-7,6.7,12.81,12.81,0,0,1-5.1.67,11.15,11.15,0,0,1-5.2-1.47,12.38,12.38,0,0,1-6-8.4,12.49,12.49,0,0,1,1-8.2,12.21,12.21,0,0,1,6.53-6.23,12,12,0,0,1,5.28-.8,12,12,0,0,1,3.19.58l.32.11a8.65,8.65,0,0,0-.91,2.91c-.51-.15-1-.32-1.49-.42A8.75,8.75,0,0,0,5.38,16a9.46,9.46,0,0,0-2.23,7.28,9.44,9.44,0,0,0,3,6.22,8.64,8.64,0,0,0,4.38,2.21.64.64,0,0,0,.33-.05,9.18,9.18,0,0,0,4-3.28,17.76,17.76,0,0,0,2.61-5.86,33.86,33.86,0,0,0,1.07-7.29C18.6,13.58,18.6,12,18.62,10.42Z"/><path class="cls-1" d="M20.52,13.2c1.07-.71,2.1-1.37,3.1-2.07a14.84,14.84,0,0,0,3.21-3,4.36,4.36,0,0,0,.92-1.88.13.13,0,0,0,0-.1,1,1,0,0,0-.08.14,12,12,0,0,1-7.71,5.86c-.11,0-.21.06-.29-.08a5.21,5.21,0,0,1-.53-4,4.33,4.33,0,0,1,2.06-2.61,10,10,0,0,1,2.58-1A6.63,6.63,0,0,0,28,1.08l.2-.38c.14.24.28.44.39.66a11.44,11.44,0,0,1,.8,9.12A7.26,7.26,0,0,1,27,13.93a4.36,4.36,0,0,1-5.31.16C21.28,13.82,20.9,13.49,20.52,13.2Z"/><path class="cls-1" d="M18.51,10A66.54,66.54,0,0,0,13.82,0l.2.15A11.55,11.55,0,0,1,16.87,4,17.22,17.22,0,0,1,18.51,10Z"/></g></svg>